<?xml version="1.0" encoding="UTF-8"?>
<svg id="Camada_1" data-name="Camada 1" xmlns="http://www.w3.org/2000/svg" viewBox="0 0 1080 1080">
  <defs>
    <style>
      .cls-1 {
        fill: #020202;
      }

      .cls-1, .cls-2 {
        stroke-width: 0px;
      }

      .cls-2 {
        fill: #bc8600;
      }
    </style>
  </defs>
  <g>
    <path class="cls-2" d="m75.25,574.73l126.96,136.69v-129.49h23.45v188.18l-126.96-136.08v127.76h-23.45v-187.05Z"/>
    <path class="cls-2" d="m313.74,670.8c0-25.96,9.34-48.2,28.03-66.73,18.69-18.53,41.15-27.79,67.39-27.79s47.67,9.33,66.18,28c18.51,18.67,27.77,40.84,27.77,66.51,0,27.18-9.15,50.15-27.43,68.91-18.29,18.76-40.73,28.14-67.33,28.14s-48.57-9.45-66.99-28.35c-18.42-18.9-27.63-41.81-27.63-68.7Zm164.43,1.13c0-19.84-6.83-36.55-20.49-50.14-13.66-13.59-30.46-20.38-50.41-20.38s-35.2,6.91-48.72,20.73c-13.52,13.82-20.28,30.41-20.28,49.78s6.94,36.27,20.82,49.86c13.88,13.59,30.89,20.38,51.02,20.38,18.51,0,34.48-6.93,47.91-20.8,13.43-13.87,20.15-30.34,20.15-49.43Z"/>
    <path class="cls-2" d="m594.69,581.93h23.45v69.17h82.08v-69.17h23.18v179.85h-23.18v-86.4h-82.08v86.4h-23.45v-179.85Z"/>
    <path class="cls-2" d="m813.63,670.8c0-25.96,9.34-48.2,28.03-66.73,18.69-18.53,41.15-27.79,67.39-27.79s47.67,9.33,66.18,28c18.51,18.67,27.77,40.84,27.77,66.51,0,27.18-9.14,50.15-27.43,68.91-18.28,18.76-40.72,28.14-67.32,28.14s-48.57-9.45-66.98-28.35c-18.42-18.9-27.63-41.81-27.63-68.7Zm164.43,1.13c0-19.84-6.83-36.55-20.49-50.14-13.66-13.59-30.46-20.38-50.41-20.38s-35.2,6.91-48.72,20.73-20.28,30.41-20.28,49.78,6.94,36.27,20.82,49.86c13.88,13.59,30.89,20.38,51.01,20.38,18.51,0,34.48-6.93,47.92-20.8,13.43-13.87,20.15-30.34,20.15-49.43Z"/>
  </g>
  <g>
    <path class="cls-2" d="m80.48,804.71h8.24v61.02h-8.24v-61.02Z"/>
    <path class="cls-2" d="m123.04,802.27l45.12,46.38v-43.93h8.33v63.85l-45.12-46.17v43.35h-8.33v-63.46Z"/>
    <path class="cls-2" d="m205.25,804.81h8.8l19.16,43.22,19.3-43.22h8.87l-28.28,62.99-27.85-62.99Z"/>
    <path class="cls-2" d="m290.29,804.71h33.81v8.33h-25.58v15.23h25.58v8.24h-25.58v20.98h25.58v8.24h-33.81v-61.02Z"/>
    <path class="cls-2" d="m392.58,811.51l-6.75,5.41c-1.79-1.85-3.4-3.23-4.85-4.14-1.45-.91-3.55-1.37-6.28-1.37-3,0-5.43.68-7.29,2.03-1.86,1.35-2.79,3.1-2.79,5.23,0,1.85.82,3.48,2.44,4.89,1.63,1.42,4.4,2.97,8.32,4.65,3.92,1.68,6.97,3.25,9.15,4.7,2.18,1.46,3.98,3.06,5.38,4.81,1.41,1.76,2.45,3.6,3.13,5.55.69,1.94,1.03,4,1.03,6.18,0,5.07-1.84,9.39-5.53,12.97-3.69,3.57-8.15,5.36-13.39,5.36s-9.62-1.4-13.53-4.19c-3.91-2.79-6.92-6.98-9.03-12.57l8.33-2.34c3.03,6.86,7.68,10.3,13.94,10.3,3.03,0,5.56-.91,7.57-2.72,2.01-1.81,3.01-4.11,3.01-6.88,0-1.66-.53-3.32-1.58-4.99-1.05-1.67-2.36-3.05-3.93-4.13-1.57-1.08-4.06-2.32-7.47-3.72-3.42-1.4-6.05-2.69-7.89-3.85-1.84-1.16-3.44-2.55-4.79-4.17-1.34-1.61-2.33-3.21-2.96-4.81-.62-1.59-.94-3.3-.94-5.12,0-4.37,1.76-8.1,5.27-11.18,3.51-3.08,7.77-4.62,12.79-4.62,3.32,0,6.69.72,10.11,2.16,3.41,1.44,6.26,3.62,8.52,6.56Z"/>
    <path class="cls-2" d="m422.01,804.71h37.32v8.33h-14.56v52.69h-8.24v-52.69h-14.51v-8.33Z"/>
    <path class="cls-2" d="m489.95,804.71h8.24v61.02h-8.24v-61.02Z"/>
    <path class="cls-2" d="m583.35,802.17l16.69,63.56h-8.17l-10.1-38.83-17.39,41.18-17.44-41.52-10.24,39.18h-8.12l16.69-63.56,19.1,45.48,18.98-45.48Z"/>
    <path class="cls-2" d="m629.33,804.71h33.81v8.33h-25.58v15.23h25.58v8.24h-25.58v20.98h25.58v8.24h-33.81v-61.02Z"/>
    <path class="cls-2" d="m693.87,802.27l45.12,46.38v-43.93h8.33v63.85l-45.12-46.17v43.35h-8.33v-63.46Z"/>
    <path class="cls-2" d="m777.43,804.71h37.31v8.33h-14.56v52.69h-8.24v-52.69h-14.51v-8.33Z"/>
    <path class="cls-2" d="m841.01,834.86c0-8.8,3.32-16.35,9.96-22.64,6.64-6.29,14.63-9.43,23.95-9.43s16.94,3.17,23.52,9.5c6.58,6.33,9.87,13.86,9.87,22.56,0,9.22-3.25,17.02-9.75,23.38-6.5,6.36-14.48,9.55-23.93,9.55s-17.26-3.21-23.8-9.62c-6.55-6.41-9.82-14.18-9.82-23.31Zm58.44.38c0-6.73-2.43-12.4-7.28-17.01-4.85-4.61-10.83-6.91-17.91-6.91s-12.51,2.34-17.32,7.03-7.21,10.32-7.21,16.89,2.46,12.31,7.4,16.92c4.93,4.61,10.98,6.91,18.13,6.91,6.58,0,12.25-2.35,17.03-7.06,4.77-4.7,7.16-10.29,7.16-16.77Z"/>
    <path class="cls-2" d="m977.83,811.51l-6.75,5.41c-1.79-1.85-3.4-3.23-4.85-4.14-1.45-.91-3.55-1.37-6.28-1.37-3,0-5.43.68-7.29,2.03-1.86,1.35-2.79,3.1-2.79,5.23,0,1.85.82,3.48,2.44,4.89,1.63,1.42,4.4,2.97,8.32,4.65,3.92,1.68,6.97,3.25,9.15,4.7,2.18,1.46,3.98,3.06,5.38,4.81,1.41,1.76,2.45,3.6,3.13,5.55.69,1.94,1.03,4,1.03,6.18,0,5.07-1.84,9.39-5.53,12.97-3.69,3.57-8.15,5.36-13.39,5.36s-9.62-1.4-13.53-4.19c-3.91-2.79-6.92-6.98-9.03-12.57l8.33-2.34c3.03,6.86,7.68,10.3,13.94,10.3,3.03,0,5.56-.91,7.57-2.72,2.01-1.81,3.01-4.11,3.01-6.88,0-1.66-.53-3.32-1.58-4.99-1.05-1.67-2.36-3.05-3.93-4.13-1.57-1.08-4.06-2.32-7.47-3.72-3.42-1.4-6.05-2.69-7.89-3.85-1.84-1.16-3.44-2.55-4.79-4.17-1.34-1.61-2.33-3.21-2.96-4.81-.62-1.59-.94-3.3-.94-5.12,0-4.37,1.76-8.1,5.27-11.18,3.51-3.08,7.77-4.62,12.79-4.62,3.32,0,6.69.72,10.11,2.16,3.41,1.44,6.26,3.62,8.52,6.56Z"/>
  </g>
  <polygon class="cls-2" points="473.9 539.84 409.35 539.84 409.35 197.73 473.9 163.46 473.9 539.84"/>
  <polygon class="cls-1" points="611.3 539.84 573.07 539.84 575 197.17 614.35 138.6 611.3 539.84"/>
  <polygon class="cls-2" points="555.88 361.63 492.14 253.3 492.14 368.68 555.21 473.29 555.88 361.63"/>
  <polygon class="cls-2" points="698.01 539.44 631.83 539.44 634.06 130.71 700.27 111 698.01 539.44"/>
  <polygon class="cls-1" points="386.69 539.84 340.23 539.84 339.85 257.21 385.02 207.45 386.69 539.84"/>
  <path class="cls-2" d="m718.38,192.58c28.91,1,57.49-2.98,85.68-8.82-1.25.95-2.49,1.92-3.76,2.86-17.52,13.43-35.33,26.52-53.23,39.38-71.15,51.18-145.12,98.43-223.93,136.8-105.17,52.39-215.05,92.27-326.68,129.41,95.21-13.28,189.04-40.27,277.71-77.56,26.54-11.16,55.26-24.55,80.75-37.95,72.73-37.53,139.83-85.68,200.45-140.45,17.86-16.25,35.18-33.11,51.54-50.84-2.46,25.98-3.91,52.2-1.65,78.27,11.2-29.47,17.58-60.63,22.68-91.64,0,0,2.28-13.73,2.28-13.73-38.27,7.61-76.77,16.58-111.84,34.28Z"/>
</svg>